<?xml version="1.0" encoding="utf-8"?>
<!-- Generator: Adobe Illustrator 25.0.1, SVG Export Plug-In . SVG Version: 6.00 Build 0)  -->
<svg version="1.1" id="Layer_1" xmlns="http://www.w3.org/2000/svg" xmlns:xlink="http://www.w3.org/1999/xlink" x="0px" y="0px"
	 viewBox="0 0 841.89 595.28" style="enable-background:new 0 0 841.89 595.28;" xml:space="preserve">
<style type="text/css">
	.st0{fill:#FFFFFF;}
	.st1{fill:#939598;}
</style>
<rect x="0" y="0" width="841.89" height="595.28"/>
<g>
	<polygon class="st0" points="686.63,162.1 530.12,162.1 451.87,297.64 530.12,433.18 686.63,433.18 764.88,297.64 	"/>
	<g>
		<path d="M648.93,263.7c0-23.43-18.99-42.42-42.42-42.42c-23.43,0-42.42,18.99-42.42,42.42c0,13.69,6.51,25.83,16.57,33.58
			c-10.06,7.76-16.57,19.9-16.57,33.58c0,23.43,18.99,42.42,42.42,42.42c23.43,0,42.42-18.99,42.42-42.42
			c0-13.69-6.51-25.83-16.57-33.58C642.42,289.53,648.93,277.39,648.93,263.7z M631.39,330.87c0,13.72-11.16,24.88-24.88,24.88
			c-13.72,0-24.88-11.16-24.88-24.88c0-13.41,10.68-24.3,23.98-24.79c0.31,0.01,0.6,0.05,0.91,0.05s0.6-0.04,0.91-0.05
			C620.71,306.57,631.39,317.46,631.39,330.87z M606.51,288.45c-0.31,0-0.6,0.04-0.9,0.05c-13.29-0.49-23.98-11.38-23.98-24.79
			c0-13.72,11.16-24.88,24.88-24.88c13.72,0,24.88,11.16,24.88,24.88c0,13.41-10.69,24.3-23.98,24.79
			C607.11,288.49,606.81,288.45,606.51,288.45z"/>
		<path d="M730.74,323.39c5.67-7.21,9.08-16.29,9.08-26.17c0-23.43-18.99-42.42-42.42-42.42c-23.43,0-42.42,18.99-42.42,42.42
			s18.99,42.42,42.42,42.42c1.31,0,2.6-0.08,3.88-0.2l-16.23,28.2l0.04,0.02l-3.47,6.02h20.24l23.86-41.45l-0.04-0.02l5.07-8.82
			L730.74,323.39z M672.52,297.21c0-13.72,11.16-24.88,24.88-24.88c13.72,0,24.88,11.16,24.88,24.88
			c0,13.72-11.16,24.88-24.88,24.88C683.68,322.1,672.52,310.93,672.52,297.21z"/>
		<polygon points="476.93,284.24 489.92,284.24 489.92,333.23 507.46,333.23 507.46,261.34 490.11,261.34 		"/>
		<polygon points="519.25,284.17 532.24,284.17 532.24,333.15 549.77,333.15 549.77,261.27 532.43,261.27 		"/>
	</g>
	<g>
		<path class="st0" d="M269.26,337.54v-79.72l8.35,0.07h44.89c5.01,0,9.66,1.29,13.81,3.82c4.14,2.53,7.49,5.96,9.96,10.2
			c2.46,4.25,3.71,9.02,3.71,14.19c0,5.17-1.25,9.95-3.71,14.19c-2.46,4.24-5.81,7.67-9.96,10.2c-4.15,2.53-8.8,3.82-13.81,3.82
			h-36.56v23.21H269.26z M322.5,297.73c2.96,0,5.53-1.14,7.64-3.39c2.12-2.26,3.19-5.03,3.19-8.22c0-3.19-1.07-5.96-3.19-8.22
			c-2.11-2.25-4.68-3.39-7.64-3.39h-36.56v23.23H322.5z"/>
		<path class="st0" d="M393.36,337.54c-5.53,0-10.8-1.04-15.66-3.11c-4.86-2.06-9.17-4.94-12.84-8.57
			c-3.67-3.63-6.58-7.9-8.67-12.69c-2.09-4.8-3.15-10-3.15-15.46c0-5.48,1.06-10.69,3.15-15.48c2.09-4.78,5-9.05,8.67-12.67
			c3.67-3.63,7.99-6.51,12.84-8.57c4.86-2.06,10.12-3.11,15.66-3.11c5.53,0,10.8,1.04,15.66,3.11c4.85,2.06,9.17,4.94,12.84,8.57
			c3.67,3.62,6.58,7.89,8.67,12.67c2.09,4.79,3.15,10,3.15,15.48c0,5.45-1.06,10.65-3.15,15.46c-2.09,4.8-5.01,9.07-8.67,12.69
			c-3.66,3.62-7.98,6.51-12.84,8.57C404.16,336.5,398.89,337.54,393.36,337.54z M393.36,274.62c-4.27,0-8.23,1.05-11.75,3.12
			c-3.53,2.08-6.38,4.89-8.48,8.38c-2.09,3.48-3.16,7.38-3.16,11.6c0,4.22,1.06,8.12,3.16,11.6c2.09,3.49,4.95,6.31,8.48,8.38
			c3.52,2.07,7.47,3.12,11.75,3.12c4.28,0,8.23-1.05,11.75-3.12c3.53-2.07,6.38-4.89,8.48-8.38c2.09-3.48,3.16-7.39,3.16-11.6
			c0-4.22-1.06-8.12-3.16-11.6c-2.1-3.49-4.95-6.31-8.48-8.38C401.59,275.67,397.63,274.62,393.36,274.62z"/>
		<path class="st0" d="M225.05,337.54c-5.53,0-10.8-1.04-15.66-3.11c-4.86-2.06-9.17-4.94-12.84-8.57
			c-3.67-3.63-6.58-7.9-8.67-12.69c-1-2.29-1.77-4.71-2.29-7.18h-8.44v31.55H160.5V257.9h16.64v31.55h8.44
			c0.53-2.49,1.3-4.91,2.3-7.2c2.09-4.78,5-9.05,8.67-12.67c3.67-3.63,7.99-6.51,12.84-8.57c4.86-2.06,10.12-3.11,15.66-3.11
			c5.53,0,10.8,1.04,15.66,3.11c4.85,2.06,9.17,4.94,12.84,8.57c3.67,3.62,6.58,7.89,8.67,12.67c2.09,4.79,3.15,10,3.15,15.48
			c0,5.45-1.06,10.65-3.15,15.46c-2.09,4.8-5.01,9.07-8.67,12.69c-3.66,3.62-7.98,6.51-12.84,8.57
			C235.85,336.5,230.58,337.54,225.05,337.54z M225.05,274.62c-4.27,0-8.23,1.05-11.75,3.12c-3.53,2.08-6.38,4.89-8.48,8.38
			c-2.09,3.48-3.16,7.38-3.16,11.6c0,4.22,1.06,8.12,3.16,11.6c2.09,3.49,4.95,6.31,8.48,8.38c3.52,2.07,7.47,3.12,11.75,3.12
			c4.28,0,8.23-1.05,11.75-3.12c3.53-2.07,6.38-4.89,8.48-8.38c2.09-3.48,3.16-7.39,3.16-11.6c0-4.22-1.06-8.12-3.16-11.6
			c-2.1-3.49-4.95-6.31-8.48-8.38C233.27,275.67,229.32,274.62,225.05,274.62z"/>
		<path class="st0" d="M77.01,257.73h70.54v16.52h-53.9v15.09l38.2,0.16c4.57,0.04,8.79,1.16,12.54,3.34
			c3.74,2.18,6.77,5.11,8.98,8.73c1.85,3.02,2.92,6.43,3.18,10.13l0.05,0.65c0.03,0.41,0.06,0.83,0.06,1.25
			c-0.01,1.06-0.1,2.15-0.3,3.43l-0.07,0.44h-0.05c-0.5,2.83-1.51,5.49-3.01,7.89c-2.24,3.6-5.29,6.51-9.05,8.65
			c-3.76,2.15-7.99,3.24-12.56,3.24l-54.6,0.29V257.73z M93.65,321.02l37.87-0.24c2.36,0,4.38-0.74,6.01-2.19
			c1.64-1.46,2.44-3.17,2.44-5.23c0-1.03-0.22-2-0.65-2.9l-0.09-0.18c-0.4-0.76-0.94-1.45-1.62-2.06c-1.62-1.47-3.64-2.22-5.99-2.24
			l-37.24-0.1l-0.51,0.07h-0.23V321.02z"/>
	</g>
	<ellipse class="st1" cx="393.36" cy="297.72" rx="9.53" ry="9.35"/>
</g>
</svg>
