<svg xmlns="http://www.w3.org/2000/svg" version="1.1" xmlns:xlink="http://www.w3.org/1999/xlink" width="1000" height="1000"><style>
    #light-icon {
      display: inline;
    }
    #dark-icon {
      display: none;
    }

    @media (prefers-color-scheme: dark) {
      #light-icon {
        display: none;
      }
      #dark-icon {
        display: inline;
      }
    }
  </style><g id="light-icon"><svg xmlns="http://www.w3.org/2000/svg" version="1.1" xmlns:xlink="http://www.w3.org/1999/xlink" width="1000" height="1000"><g><g transform="matrix(21.73913043478261,0,0,21.73913043478261,0,0)"><svg xmlns="http://www.w3.org/2000/svg" version="1.1" xmlns:xlink="http://www.w3.org/1999/xlink" width="46" height="46"><svg width="46" height="46" viewBox="0 0 46 46" fill="none" xmlns="http://www.w3.org/2000/svg">
<path d="M0.57735 24C0.220084 23.3812 0.220084 22.6188 0.577349 22L10.9226 4.08142C11.2799 3.46262 11.9402 3.08142 12.6547 3.08142L33.3453 3.08142C34.0598 3.08142 34.7201 3.46262 35.0774 4.08142L45.4227 22C45.7799 22.6188 45.7799 23.3812 45.4227 24L35.0774 41.9186C34.7201 42.5374 34.0598 42.9186 33.3453 42.9186L12.6547 42.9186C11.9402 42.9186 11.2799 42.5374 10.9227 41.9186L0.57735 24Z" fill="#DF0024"></path>
<path d="M12.7086 23.9851C12.3626 23.3738 12.3626 22.6259 12.7086 22.0147L17.0011 14.4312C17.356 13.8041 18.0209 13.4164 18.7416 13.4164L27.2584 13.4164C27.9791 13.4164 28.644 13.8041 28.9989 14.4312L33.2914 22.0147C33.6374 22.6259 33.6374 23.3738 33.2914 23.9851L28.9989 31.5685C28.644 32.1957 27.9791 32.5833 27.2584 32.5833L18.7416 32.5833C18.0209 32.5833 17.356 32.1957 17.0011 31.5685L12.7086 23.9851Z" fill="white"></path>
</svg></svg></g></g></svg></g><g id="dark-icon"><svg xmlns="http://www.w3.org/2000/svg" version="1.1" xmlns:xlink="http://www.w3.org/1999/xlink" width="1000" height="1000"><g><g transform="matrix(21.73913043478261,0,0,21.73913043478261,0,65.21739130434781)"><svg xmlns="http://www.w3.org/2000/svg" version="1.1" xmlns:xlink="http://www.w3.org/1999/xlink" width="46" height="40"><svg width="46" height="40" viewBox="0 0 46 40" fill="none" xmlns="http://www.w3.org/2000/svg">
<path d="M33.3454 0.0810547C34.0598 0.0810837 34.7205 0.462322 35.0778 1.08105L45.4225 19C45.7798 19.6188 45.7798 20.3812 45.4225 21L35.0778 38.9189C34.7205 39.5377 34.0598 39.9189 33.3454 39.9189H12.6549C11.9405 39.9189 11.2798 39.5376 10.9225 38.9189L0.577789 21C0.220524 20.3812 0.220524 19.6188 0.577789 19L10.9225 1.08105C11.2798 0.462384 11.9405 0.0810547 12.6549 0.0810547H33.3454ZM18.7419 10.416C18.0212 10.416 17.3556 10.8045 17.0006 11.4316L12.7086 19.0146C12.3627 19.6259 12.3627 20.3741 12.7086 20.9854L17.0006 28.5684C17.3556 29.1955 18.0212 29.583 18.7419 29.583H27.2585C27.9791 29.583 28.6437 29.1955 28.9987 28.5684L33.2917 20.9854C33.6376 20.3741 33.6376 19.6259 33.2917 19.0146L28.9987 11.4316C28.6437 10.8045 27.9791 10.416 27.2585 10.416H18.7419Z" fill="#DF0024"></path>
</svg></svg></g></g></svg></g></svg>